<svg width="18" height="18" viewBox="0 0 18 18" fill="none" xmlns="http://www.w3.org/2000/svg">
<path d="M9.00001 0.529297C13.6782 0.529297 17.4706 4.32171 17.4706 8.99989C17.4706 13.6781 13.6782 17.4705 9.00001 17.4705C4.32183 17.4705 0.529419 13.6781 0.529419 8.99989C0.529419 4.32171 4.32183 0.529297 9.00001 0.529297ZM9.00001 1.94106C5.10153 1.94106 1.94118 5.10141 1.94118 8.99989C1.94118 12.8984 5.10153 16.0587 9.00001 16.0587C12.8985 16.0587 16.0588 12.8984 16.0588 8.99989C16.0588 5.10141 12.8985 1.94106 9.00001 1.94106ZM9.00001 4.76459C9.36934 4.76459 9.67242 5.04823 9.7033 5.40957L9.70589 5.47047L9.70542 8.2933L12.5294 8.294C12.9193 8.294 13.2353 8.61004 13.2353 8.99989C13.2353 9.36922 12.9517 9.6723 12.5903 9.70318L12.5294 9.70577L9.70542 9.7053L9.70589 12.5293C9.70589 12.9191 9.38986 13.2352 9.00001 13.2352C8.63068 13.2352 8.3276 12.9515 8.29672 12.5902L8.29412 12.5293L8.29342 9.7053L5.4706 9.70577C5.08075 9.70577 4.76471 9.38973 4.76471 8.99989C4.76471 8.63056 5.04836 8.32747 5.40969 8.29659L5.4706 8.294L8.29342 8.2933L8.29412 5.47047C8.29412 5.08063 8.61016 4.76459 9.00001 4.76459Z" fill="#5B2F91"/>
</svg>
