<svg width="16" height="16" viewBox="0 0 16 16" fill="none" xmlns="http://www.w3.org/2000/svg">
<path fill-rule="evenodd" clip-rule="evenodd" d="M9.66772 2.39477L9.672 2.39L11.8495 0.213008C12.1077 -0.0451837 12.5117 -0.0686552 12.7964 0.142592L12.878 0.213008L15.787 3.12203C16.071 3.40604 16.071 3.86651 15.787 4.15052L13.6099 6.32754C13.6084 6.32913 13.6068 6.33071 13.6052 6.33228L13.6 6.336L4.87818 15.0593C4.80203 15.1355 4.71026 15.1934 4.60974 15.2295L4.50656 15.2582L0.870285 15.9855C0.361409 16.0872 -0.0872479 15.6386 0.0145271 15.1297L0.741781 11.4934C0.769939 11.3527 0.839141 11.2233 0.940666 11.1218L9.66772 2.39477ZM10.181 3.937L2.12471 11.9946L1.65418 14.3451L4.00394 13.8753L12.061 5.817L10.181 3.937ZM12.3637 1.75632L11.21 2.908L13.09 4.788L14.2437 3.63627L12.3637 1.75632Z" fill="#5B2F91"/>
</svg>
