<svg width="14" height="16" viewBox="0 0 14 16" fill="none" xmlns="http://www.w3.org/2000/svg">
<path fill-rule="evenodd" clip-rule="evenodd" d="M12.2941 4.55743V15.152C12.2945 15.5843 11.9464 15.9362 11.5141 15.9405H2.48589C2.0546 15.9362 1.70589 15.5854 1.70589 15.1527V4.55743H12.2941ZM11.2353 5.61766H2.76472V14.8824H11.2353V5.61766ZM5.14707 6.67648V13.2941H4.08825V6.67648H5.14707ZM7.52942 6.67648V13.2941H6.4706V6.67648H7.52942ZM9.91177 6.67648V13.2941H8.85295V6.67648H9.91177ZM8.6673 0.0588379C9.06824 0.0588379 9.38236 0.407544 9.38236 0.852956V2.44119H13.3522V3.50001H0.646362V2.44119H4.61695V0.852956C4.61695 0.407544 4.93107 0.0588379 5.33201 0.0588379H8.6673ZM8.32354 1.11766H5.67648V2.44119H8.32354V1.11766Z" fill="#5B2F91"/>
</svg>
